<mxfile host="app.diagrams.net" modified="2022-12-09T05:53:50.049Z" agent="5.0 (Windows NT 10.0; Win64; x64) AppleWebKit/537.36 (KHTML, like Gecko) Chrome/108.0.0.0 Safari/537.36 Edg/108.0.1462.42" etag="AXVogpgHfKuLE4jITD4c" version="20.6.0" type="github" pages="2">
  <diagram id="C5RBs43oDa-KdzZeNtuy" name="单据下推管理图">
    <mxGraphModel dx="1374" dy="754" grid="1" gridSize="10" guides="1" tooltips="1" connect="1" arrows="1" fold="1" page="1" pageScale="1" pageWidth="827" pageHeight="1169" math="0" shadow="0">
      <root>
        <mxCell id="WIyWlLk6GJQsqaUBKTNV-0" />
        <mxCell id="WIyWlLk6GJQsqaUBKTNV-1" parent="WIyWlLk6GJQsqaUBKTNV-0" />
        <mxCell id="pcfdZ--9pD_N2AmGwYm8-0" style="edgeStyle=orthogonalEdgeStyle;rounded=0;orthogonalLoop=1;jettySize=auto;html=1;dashed=1;" edge="1" parent="WIyWlLk6GJQsqaUBKTNV-1" source="yGl1BQOes_U4skFVAVLt-0" target="yGl1BQOes_U4skFVAVLt-1">
          <mxGeometry relative="1" as="geometry" />
        </mxCell>
        <mxCell id="pcfdZ--9pD_N2AmGwYm8-1" value="订单号字段关联" style="edgeLabel;html=1;align=center;verticalAlign=middle;resizable=0;points=[];" vertex="1" connectable="0" parent="pcfdZ--9pD_N2AmGwYm8-0">
          <mxGeometry x="-0.1528" y="2" relative="1" as="geometry">
            <mxPoint as="offset" />
          </mxGeometry>
        </mxCell>
        <mxCell id="pcfdZ--9pD_N2AmGwYm8-2" style="edgeStyle=orthogonalEdgeStyle;rounded=0;orthogonalLoop=1;jettySize=auto;html=1;entryX=1;entryY=0.5;entryDx=0;entryDy=0;dashed=1;exitX=0.5;exitY=1;exitDx=0;exitDy=0;" edge="1" parent="WIyWlLk6GJQsqaUBKTNV-1" source="yGl1BQOes_U4skFVAVLt-0" target="yGl1BQOes_U4skFVAVLt-4">
          <mxGeometry relative="1" as="geometry" />
        </mxCell>
        <mxCell id="pcfdZ--9pD_N2AmGwYm8-3" value="订单号字段关联" style="edgeLabel;html=1;align=center;verticalAlign=middle;resizable=0;points=[];" vertex="1" connectable="0" parent="pcfdZ--9pD_N2AmGwYm8-2">
          <mxGeometry x="0.1037" y="1" relative="1" as="geometry">
            <mxPoint as="offset" />
          </mxGeometry>
        </mxCell>
        <mxCell id="yGl1BQOes_U4skFVAVLt-0" value="财务销售订单（BOS单）" style="rounded=1;whiteSpace=wrap;html=1;" parent="WIyWlLk6GJQsqaUBKTNV-1" vertex="1">
          <mxGeometry x="520" y="120" width="150" height="60" as="geometry" />
        </mxCell>
        <mxCell id="yGl1BQOes_U4skFVAVLt-5" value="下推" style="edgeStyle=orthogonalEdgeStyle;rounded=0;orthogonalLoop=1;jettySize=auto;html=1;" parent="WIyWlLk6GJQsqaUBKTNV-1" source="yGl1BQOes_U4skFVAVLt-1" target="yGl1BQOes_U4skFVAVLt-4" edge="1">
          <mxGeometry relative="1" as="geometry" />
        </mxCell>
        <mxCell id="yGl1BQOes_U4skFVAVLt-1" value="收款单" style="whiteSpace=wrap;html=1;rounded=1;" parent="WIyWlLk6GJQsqaUBKTNV-1" vertex="1">
          <mxGeometry x="240" y="120" width="120" height="60" as="geometry" />
        </mxCell>
        <mxCell id="yGl1BQOes_U4skFVAVLt-4" value="收款退款单" style="whiteSpace=wrap;html=1;rounded=1;" parent="WIyWlLk6GJQsqaUBKTNV-1" vertex="1">
          <mxGeometry x="240" y="220" width="120" height="60" as="geometry" />
        </mxCell>
        <mxCell id="yGl1BQOes_U4skFVAVLt-8" value="&lt;font style=&quot;font-size: 24px;&quot;&gt;单据关联关系图&lt;/font&gt;" style="text;html=1;align=center;verticalAlign=middle;resizable=0;points=[];autosize=1;strokeColor=none;fillColor=none;" parent="WIyWlLk6GJQsqaUBKTNV-1" vertex="1">
          <mxGeometry x="350" y="70" width="190" height="40" as="geometry" />
        </mxCell>
      </root>
    </mxGraphModel>
  </diagram>
  <diagram id="2T7ZI2JlLuQOsbgaRB6-" name="流程图">
    <mxGraphModel dx="1374" dy="1581" grid="1" gridSize="10" guides="1" tooltips="1" connect="1" arrows="1" fold="1" page="1" pageScale="1" pageWidth="1169" pageHeight="827" math="0" shadow="0">
      <root>
        <mxCell id="0" />
        <mxCell id="1" parent="0" />
        <mxCell id="9b_se9P58y_OY4IH3XjW-3" style="edgeStyle=orthogonalEdgeStyle;rounded=0;orthogonalLoop=1;jettySize=auto;html=1;" edge="1" parent="1" source="9b_se9P58y_OY4IH3XjW-1" target="9b_se9P58y_OY4IH3XjW-2">
          <mxGeometry relative="1" as="geometry" />
        </mxCell>
        <mxCell id="9b_se9P58y_OY4IH3XjW-1" value="正向" style="ellipse;whiteSpace=wrap;html=1;aspect=fixed;" vertex="1" parent="1">
          <mxGeometry x="560" width="40" height="40" as="geometry" />
        </mxCell>
        <mxCell id="9b_se9P58y_OY4IH3XjW-5" value="" style="edgeStyle=orthogonalEdgeStyle;rounded=0;orthogonalLoop=1;jettySize=auto;html=1;" edge="1" parent="1" source="9b_se9P58y_OY4IH3XjW-2" target="9b_se9P58y_OY4IH3XjW-4">
          <mxGeometry relative="1" as="geometry" />
        </mxCell>
        <mxCell id="9b_se9P58y_OY4IH3XjW-2" value="OA：创建订单" style="rounded=1;whiteSpace=wrap;html=1;" vertex="1" parent="1">
          <mxGeometry x="520" y="60" width="120" height="40" as="geometry" />
        </mxCell>
        <mxCell id="9b_se9P58y_OY4IH3XjW-7" value="" style="edgeStyle=orthogonalEdgeStyle;rounded=0;orthogonalLoop=1;jettySize=auto;html=1;" edge="1" parent="1" source="9b_se9P58y_OY4IH3XjW-4" target="9b_se9P58y_OY4IH3XjW-6">
          <mxGeometry relative="1" as="geometry" />
        </mxCell>
        <mxCell id="9b_se9P58y_OY4IH3XjW-9" value="" style="rounded=0;orthogonalLoop=1;jettySize=auto;html=1;entryX=1;entryY=0.5;entryDx=0;entryDy=0;exitX=0;exitY=0;exitDx=0;exitDy=0;" edge="1" parent="1" source="9b_se9P58y_OY4IH3XjW-4" target="9b_se9P58y_OY4IH3XjW-8">
          <mxGeometry relative="1" as="geometry" />
        </mxCell>
        <mxCell id="9b_se9P58y_OY4IH3XjW-4" value="OA：订单收款" style="whiteSpace=wrap;html=1;rounded=1;" vertex="1" parent="1">
          <mxGeometry x="520" y="140" width="120" height="40" as="geometry" />
        </mxCell>
        <mxCell id="9b_se9P58y_OY4IH3XjW-19" value="" style="edgeStyle=orthogonalEdgeStyle;rounded=0;orthogonalLoop=1;jettySize=auto;html=1;" edge="1" parent="1" source="9b_se9P58y_OY4IH3XjW-6" target="9b_se9P58y_OY4IH3XjW-18">
          <mxGeometry relative="1" as="geometry" />
        </mxCell>
        <mxCell id="9b_se9P58y_OY4IH3XjW-6" value="OA：订单提交" style="whiteSpace=wrap;html=1;rounded=1;" vertex="1" parent="1">
          <mxGeometry x="520" y="220" width="120" height="40" as="geometry" />
        </mxCell>
        <mxCell id="9b_se9P58y_OY4IH3XjW-12" value="" style="edgeStyle=orthogonalEdgeStyle;rounded=0;orthogonalLoop=1;jettySize=auto;html=1;" edge="1" parent="1" source="9b_se9P58y_OY4IH3XjW-8" target="9b_se9P58y_OY4IH3XjW-11">
          <mxGeometry relative="1" as="geometry" />
        </mxCell>
        <mxCell id="9b_se9P58y_OY4IH3XjW-8" value="ERP：收款单" style="whiteSpace=wrap;html=1;rounded=1;" vertex="1" parent="1">
          <mxGeometry x="350" y="80" width="120" height="40" as="geometry" />
        </mxCell>
        <mxCell id="9b_se9P58y_OY4IH3XjW-13" style="edgeStyle=orthogonalEdgeStyle;rounded=0;orthogonalLoop=1;jettySize=auto;html=1;entryX=0.25;entryY=1;entryDx=0;entryDy=0;exitX=0.5;exitY=1;exitDx=0;exitDy=0;" edge="1" parent="1" source="9b_se9P58y_OY4IH3XjW-11" target="9b_se9P58y_OY4IH3XjW-4">
          <mxGeometry relative="1" as="geometry" />
        </mxCell>
        <mxCell id="9b_se9P58y_OY4IH3XjW-11" value="ERP：销售出库单&lt;br&gt;（锁库存）" style="whiteSpace=wrap;html=1;rounded=1;" vertex="1" parent="1">
          <mxGeometry x="350" y="140" width="120" height="40" as="geometry" />
        </mxCell>
        <mxCell id="9b_se9P58y_OY4IH3XjW-17" value="" style="edgeStyle=orthogonalEdgeStyle;rounded=0;orthogonalLoop=1;jettySize=auto;html=1;" edge="1" parent="1" source="9b_se9P58y_OY4IH3XjW-14" target="9b_se9P58y_OY4IH3XjW-16">
          <mxGeometry relative="1" as="geometry" />
        </mxCell>
        <mxCell id="9b_se9P58y_OY4IH3XjW-14" value="ERP：创建财务销售订单并审批" style="whiteSpace=wrap;html=1;rounded=1;" vertex="1" parent="1">
          <mxGeometry x="520" y="380" width="120" height="40" as="geometry" />
        </mxCell>
        <mxCell id="9b_se9P58y_OY4IH3XjW-22" value="" style="edgeStyle=orthogonalEdgeStyle;rounded=0;orthogonalLoop=1;jettySize=auto;html=1;" edge="1" parent="1" source="9b_se9P58y_OY4IH3XjW-16" target="9b_se9P58y_OY4IH3XjW-21">
          <mxGeometry relative="1" as="geometry" />
        </mxCell>
        <mxCell id="9b_se9P58y_OY4IH3XjW-16" value="ERP：订单出库" style="whiteSpace=wrap;html=1;rounded=1;" vertex="1" parent="1">
          <mxGeometry x="520" y="460" width="120" height="40" as="geometry" />
        </mxCell>
        <mxCell id="9b_se9P58y_OY4IH3XjW-20" style="edgeStyle=orthogonalEdgeStyle;rounded=0;orthogonalLoop=1;jettySize=auto;html=1;" edge="1" parent="1" source="9b_se9P58y_OY4IH3XjW-18" target="9b_se9P58y_OY4IH3XjW-14">
          <mxGeometry relative="1" as="geometry" />
        </mxCell>
        <mxCell id="9b_se9P58y_OY4IH3XjW-18" value="OA：计算货款" style="whiteSpace=wrap;html=1;rounded=1;" vertex="1" parent="1">
          <mxGeometry x="520" y="300" width="120" height="40" as="geometry" />
        </mxCell>
        <mxCell id="9b_se9P58y_OY4IH3XjW-25" value="" style="edgeStyle=orthogonalEdgeStyle;rounded=0;orthogonalLoop=1;jettySize=auto;html=1;" edge="1" parent="1" source="9b_se9P58y_OY4IH3XjW-21" target="9b_se9P58y_OY4IH3XjW-24">
          <mxGeometry relative="1" as="geometry" />
        </mxCell>
        <mxCell id="9b_se9P58y_OY4IH3XjW-21" value="OA：订单发货" style="whiteSpace=wrap;html=1;rounded=1;" vertex="1" parent="1">
          <mxGeometry x="520" y="540" width="120" height="40" as="geometry" />
        </mxCell>
        <mxCell id="9b_se9P58y_OY4IH3XjW-27" style="edgeStyle=orthogonalEdgeStyle;rounded=0;orthogonalLoop=1;jettySize=auto;html=1;" edge="1" parent="1" source="9b_se9P58y_OY4IH3XjW-24" target="9b_se9P58y_OY4IH3XjW-26">
          <mxGeometry relative="1" as="geometry" />
        </mxCell>
        <mxCell id="9b_se9P58y_OY4IH3XjW-24" value="OA：快递回调订单签收" style="whiteSpace=wrap;html=1;rounded=1;" vertex="1" parent="1">
          <mxGeometry x="520" y="620" width="120" height="40" as="geometry" />
        </mxCell>
        <mxCell id="9b_se9P58y_OY4IH3XjW-26" value="" style="ellipse;whiteSpace=wrap;html=1;aspect=fixed;" vertex="1" parent="1">
          <mxGeometry x="560" y="680" width="40" height="40" as="geometry" />
        </mxCell>
        <mxCell id="9b_se9P58y_OY4IH3XjW-31" value="" style="edgeStyle=orthogonalEdgeStyle;rounded=0;orthogonalLoop=1;jettySize=auto;html=1;" edge="1" parent="1" source="9b_se9P58y_OY4IH3XjW-28" target="9b_se9P58y_OY4IH3XjW-30">
          <mxGeometry relative="1" as="geometry" />
        </mxCell>
        <mxCell id="9b_se9P58y_OY4IH3XjW-28" value="退款" style="ellipse;whiteSpace=wrap;html=1;aspect=fixed;" vertex="1" parent="1">
          <mxGeometry x="760" width="40" height="40" as="geometry" />
        </mxCell>
        <mxCell id="9b_se9P58y_OY4IH3XjW-34" value="" style="edgeStyle=orthogonalEdgeStyle;rounded=0;orthogonalLoop=1;jettySize=auto;html=1;" edge="1" parent="1" source="9b_se9P58y_OY4IH3XjW-30" target="9b_se9P58y_OY4IH3XjW-33">
          <mxGeometry relative="1" as="geometry" />
        </mxCell>
        <mxCell id="9b_se9P58y_OY4IH3XjW-30" value="OA：订单退款" style="rounded=1;whiteSpace=wrap;html=1;" vertex="1" parent="1">
          <mxGeometry x="720" y="60" width="120" height="40" as="geometry" />
        </mxCell>
        <mxCell id="9b_se9P58y_OY4IH3XjW-36" value="" style="edgeStyle=orthogonalEdgeStyle;rounded=0;orthogonalLoop=1;jettySize=auto;html=1;" edge="1" parent="1" source="9b_se9P58y_OY4IH3XjW-33" target="9b_se9P58y_OY4IH3XjW-35">
          <mxGeometry relative="1" as="geometry" />
        </mxCell>
        <mxCell id="9b_se9P58y_OY4IH3XjW-33" value="OA：找到付款单" style="whiteSpace=wrap;html=1;rounded=1;" vertex="1" parent="1">
          <mxGeometry x="720" y="140" width="120" height="40" as="geometry" />
        </mxCell>
        <mxCell id="9b_se9P58y_OY4IH3XjW-38" value="" style="edgeStyle=orthogonalEdgeStyle;rounded=0;orthogonalLoop=1;jettySize=auto;html=1;" edge="1" parent="1" source="9b_se9P58y_OY4IH3XjW-35" target="9b_se9P58y_OY4IH3XjW-37">
          <mxGeometry relative="1" as="geometry" />
        </mxCell>
        <mxCell id="9b_se9P58y_OY4IH3XjW-35" value="OA：调用接口执行退款" style="whiteSpace=wrap;html=1;rounded=1;" vertex="1" parent="1">
          <mxGeometry x="720" y="220" width="120" height="40" as="geometry" />
        </mxCell>
        <mxCell id="9b_se9P58y_OY4IH3XjW-39" style="edgeStyle=orthogonalEdgeStyle;rounded=0;orthogonalLoop=1;jettySize=auto;html=1;entryX=1;entryY=0.5;entryDx=0;entryDy=0;exitX=1;exitY=0.5;exitDx=0;exitDy=0;" edge="1" parent="1" source="9b_se9P58y_OY4IH3XjW-37" target="9b_se9P58y_OY4IH3XjW-33">
          <mxGeometry relative="1" as="geometry">
            <Array as="points">
              <mxPoint x="870" y="320" />
              <mxPoint x="870" y="160" />
            </Array>
          </mxGeometry>
        </mxCell>
        <mxCell id="9b_se9P58y_OY4IH3XjW-41" value="" style="edgeStyle=orthogonalEdgeStyle;rounded=0;orthogonalLoop=1;jettySize=auto;html=1;" edge="1" parent="1" source="9b_se9P58y_OY4IH3XjW-37" target="9b_se9P58y_OY4IH3XjW-40">
          <mxGeometry relative="1" as="geometry" />
        </mxCell>
        <mxCell id="9b_se9P58y_OY4IH3XjW-37" value="ERP：从收款单下推收款退款单" style="whiteSpace=wrap;html=1;rounded=1;" vertex="1" parent="1">
          <mxGeometry x="720" y="300" width="120" height="40" as="geometry" />
        </mxCell>
        <mxCell id="9b_se9P58y_OY4IH3XjW-43" value="" style="edgeStyle=orthogonalEdgeStyle;rounded=0;orthogonalLoop=1;jettySize=auto;html=1;" edge="1" parent="1" source="9b_se9P58y_OY4IH3XjW-40" target="9b_se9P58y_OY4IH3XjW-42">
          <mxGeometry relative="1" as="geometry" />
        </mxCell>
        <mxCell id="9b_se9P58y_OY4IH3XjW-40" value="OA：订单变为已取消" style="rounded=1;whiteSpace=wrap;html=1;" vertex="1" parent="1">
          <mxGeometry x="720" y="380" width="120" height="40" as="geometry" />
        </mxCell>
        <mxCell id="9b_se9P58y_OY4IH3XjW-44" style="edgeStyle=orthogonalEdgeStyle;rounded=0;orthogonalLoop=1;jettySize=auto;html=1;entryX=1;entryY=0.5;entryDx=0;entryDy=0;exitX=1;exitY=0.25;exitDx=0;exitDy=0;" edge="1" parent="1" source="9b_se9P58y_OY4IH3XjW-42" target="9b_se9P58y_OY4IH3XjW-30">
          <mxGeometry relative="1" as="geometry">
            <Array as="points">
              <mxPoint x="930" y="470" />
              <mxPoint x="930" y="80" />
            </Array>
          </mxGeometry>
        </mxCell>
        <mxCell id="9b_se9P58y_OY4IH3XjW-46" style="edgeStyle=orthogonalEdgeStyle;rounded=0;orthogonalLoop=1;jettySize=auto;html=1;" edge="1" parent="1" source="9b_se9P58y_OY4IH3XjW-42" target="9b_se9P58y_OY4IH3XjW-45">
          <mxGeometry relative="1" as="geometry" />
        </mxCell>
        <mxCell id="9b_se9P58y_OY4IH3XjW-42" value="OA：业绩减去取消部分" style="whiteSpace=wrap;html=1;rounded=1;" vertex="1" parent="1">
          <mxGeometry x="720" y="460" width="120" height="40" as="geometry" />
        </mxCell>
        <mxCell id="9b_se9P58y_OY4IH3XjW-45" value="" style="ellipse;whiteSpace=wrap;html=1;aspect=fixed;" vertex="1" parent="1">
          <mxGeometry x="760" y="520" width="40" height="40" as="geometry" />
        </mxCell>
        <mxCell id="woOo1PCr8QqZfcK_CN4o-1" value="&lt;font style=&quot;font-size: 24px;&quot;&gt;OA to Erp单据流转&lt;/font&gt;" style="text;html=1;align=center;verticalAlign=middle;resizable=0;points=[];autosize=1;strokeColor=none;fillColor=none;" vertex="1" parent="1">
          <mxGeometry x="570" y="-60" width="220" height="40" as="geometry" />
        </mxCell>
      </root>
    </mxGraphModel>
  </diagram>
</mxfile>
